<?xml version="1.0" standalone="no"?>
<!DOCTYPE svg PUBLIC "-//W3C//DTD SVG 20010904//EN"
 "http://www.w3.org/TR/2001/REC-SVG-20010904/DTD/svg10.dtd">
<svg version="1.0" xmlns="http://www.w3.org/2000/svg"
 width="1024.000000pt" height="1024.000000pt" viewBox="0 0 1024.000000 1024.000000"
 preserveAspectRatio="xMidYMid meet">

<g transform="translate(0.000000,1024.000000) scale(0.100000,-0.100000)"
fill="#000000" stroke="none">
<path d="M4665 9060 c-770 -79 -1411 -352 -1966 -836 -544 -476 -918 -1100
-1074 -1792 -57 -254 -69 -375 -69 -697 0 -315 9 -425 55 -650 93 -449 305
-917 584 -1290 293 -391 668 -724 1090 -965 370 -213 828 -363 1295 -425 167
-23 570 -31 742 -16 225 20 448 61 618 114 68 21 75 26 87 57 12 35 151 481
159 510 3 10 -31 40 -94 86 -53 39 -189 138 -302 221 -113 82 -279 203 -370
268 -91 65 -176 128 -190 140 -24 22 -35 23 -230 28 -284 8 -468 39 -720 123
-228 76 -466 201 -641 339 -113 88 -306 289 -381 395 -347 490 -440 1135 -247
1715 171 514 562 955 1061 1195 276 132 525 193 843 207 239 10 479 -18 701
-82 243 -71 527 -214 715 -361 30 -24 59 -44 65 -44 5 -1 201 194 437 432
l427 433 -67 64 c-464 436 -1103 726 -1804 816 -146 19 -591 28 -724 15z"/>
<path d="M4889 6291 l-24 -19 0 -586 0 -585 23 -23 23 -23 848 -3 848 -3 -27
-77 c-95 -271 -233 -527 -354 -656 -25 -27 -45 -50 -43 -50 1 -1 99 0 219 2
l216 3 77 187 c43 103 139 340 215 527 155 386 167 411 217 466 95 105 232
107 321 4 48 -54 64 -90 271 -620 106 -269 197 -500 203 -512 l11 -22 17 22
c22 28 50 105 89 242 92 329 141 692 141 1056 0 247 -33 567 -65 629 -33 64
82 60 -1638 60 -1526 0 -1565 0 -1588 -19z"/>
<path d="M7231 5194 c-12 -9 -32 -37 -43 -63 -31 -72 -388 -1029 -388 -1041 0
-7 -221 -10 -675 -10 -742 0 -718 2 -750 -60 -19 -37 -19 -73 -1 -109 10 -18
141 -117 363 -276 476 -340 693 -496 698 -505 2 -4 -29 -106 -69 -226 -279
-824 -326 -970 -326 -1001 0 -65 55 -123 117 -123 16 0 50 13 76 30 39 25 885
618 1000 701 22 16 43 29 48 29 4 0 236 -161 516 -359 279 -197 526 -368 548
-380 60 -32 91 -28 138 19 40 40 40 41 34 103 -4 45 -60 223 -201 636 -108
316 -195 575 -194 576 2 1 109 78 238 170 568 406 802 579 818 603 28 43 22
97 -16 135 l-32 32 -684 3 -683 2 -12 43 c-7 23 -94 265 -192 537 -151 417
-184 499 -209 523 -35 31 -83 36 -119 11z"/>
</g>
</svg>
