<?xml version="1.0" standalone="no"?>
<!DOCTYPE svg PUBLIC "-//W3C//DTD SVG 20010904//EN"
 "http://www.w3.org/TR/2001/REC-SVG-20010904/DTD/svg10.dtd">
<svg version="1.0" xmlns="http://www.w3.org/2000/svg"
 width="1536.000000pt" height="1024.000000pt" viewBox="0 0 1536.000000 1024.000000"
 preserveAspectRatio="xMidYMid meet">

<g transform="translate(0.000000,1024.000000) scale(0.100000,-0.100000)"
fill="#000000" stroke="none">
<path d="M4270 7076 c-273 -40 -538 -138 -755 -281 -107 -71 -145 -101 -244
-198 -175 -170 -269 -298 -362 -491 -71 -148 -100 -233 -135 -401 -26 -118
-28 -149 -28 -345 -1 -242 15 -349 79 -546 137 -417 492 -813 910 -1014 256
-123 521 -187 820 -197 427 -14 773 73 1073 270 487 321 750 855 728 1477 -6
169 -25 310 -46 336 -11 12 -139 14 -894 14 -673 0 -885 -3 -894 -12 -16 -16
-17 -680 -2 -709 10 -18 27 -19 511 -19 l500 0 -6 -22 c-14 -46 -86 -184 -120
-230 -86 -116 -294 -247 -457 -288 -256 -64 -554 -42 -790 60 -311 133 -527
405 -584 734 -20 114 -14 297 15 407 88 339 338 580 698 671 75 20 113 23 263
22 146 0 188 -4 252 -22 113 -31 222 -79 303 -134 40 -26 80 -48 89 -48 8 0
102 80 209 178 106 97 226 207 266 243 59 52 72 69 67 85 -10 26 -131 128
-236 199 -171 114 -398 206 -612 246 -146 27 -476 35 -618 15z"/>
<path d="M7243 6759 c-18 -18 -19 -2709 -1 -2727 18 -18 372 -17 387 1 7 10
12 171 13 538 l3 524 300 2 c333 2 418 10 550 54 259 86 438 266 517 519 20
65 23 96 23 235 0 136 -3 171 -23 238 -88 307 -328 525 -657 600 -83 19 -131
21 -595 24 -398 3 -508 2 -517 -8z m985 -379 c179 -29 306 -123 363 -267 20
-49 23 -77 24 -183 0 -120 -1 -128 -31 -191 -57 -120 -135 -185 -279 -235 -79
-28 -83 -28 -372 -32 l-293 -4 0 461 0 461 263 0 c144 0 290 -5 325 -10z"/>
<path d="M9710 5919 c-138 -18 -298 -81 -416 -165 -101 -72 -225 -222 -211
-257 3 -8 27 -22 54 -32 26 -10 102 -42 168 -72 l120 -53 24 32 c14 18 52 60
85 93 96 96 196 135 348 135 229 0 368 -117 412 -346 8 -43 13 -80 11 -82 -2
-2 -17 4 -35 13 -97 50 -325 81 -490 65 -338 -32 -602 -175 -712 -386 -44 -85
-58 -149 -58 -267 0 -176 54 -312 170 -427 219 -219 644 -262 923 -93 73 44
160 118 203 173 l34 43 0 -121 c0 -66 3 -127 6 -136 5 -14 29 -16 164 -16 124
0 160 3 169 14 9 11 11 165 8 628 -3 535 -6 621 -20 678 -54 207 -151 348
-311 454 -170 112 -399 157 -646 125z m352 -980 c77 -16 214 -59 234 -74 17
-12 17 -18 2 -107 -35 -213 -160 -360 -367 -430 -91 -31 -231 -30 -313 1 -68
26 -132 85 -161 149 -33 71 -30 189 5 257 58 111 145 164 343 208 41 9 206 7
257 -4z"/>
<path d="M10620 5864 c0 -19 90 -204 504 -1034 179 -361 326 -661 326 -668 0
-7 -29 -81 -64 -165 -92 -220 -234 -559 -245 -590 l-11 -27 225 0 224 0 21 58
c12 31 111 320 221 642 240 706 434 1267 540 1568 44 123 79 226 79 228 0 2
-98 4 -219 4 -163 0 -221 -3 -228 -12 -11 -14 -135 -421 -268 -878 -47 -162
-89 -303 -93 -313 -5 -13 -25 23 -74 130 -37 81 -99 218 -138 303 -117 253
-316 692 -333 733 l-16 37 -225 0 c-198 0 -226 -2 -226 -16z"/>
</g>
</svg>
