<?xml version="1.0" standalone="no"?>
<!DOCTYPE svg PUBLIC "-//W3C//DTD SVG 20010904//EN"
 "http://www.w3.org/TR/2001/REC-SVG-20010904/DTD/svg10.dtd">
<svg version="1.0" xmlns="http://www.w3.org/2000/svg"
 width="1024.000000pt" height="1024.000000pt" viewBox="0 0 1024.000000 1024.000000"
 preserveAspectRatio="xMidYMid meet">

<g transform="translate(0.000000,1024.000000) scale(0.100000,-0.100000)"
fill="#000000" stroke="none">
<path d="M3315 8974 c-376 -20 -659 -93 -957 -246 -180 -93 -324 -201 -483
-362 -282 -285 -448 -601 -534 -1021 -67 -321 -74 -567 -68 -2380 3 -1030 8
-1512 16 -1585 57 -517 199 -882 468 -1200 323 -383 748 -603 1358 -702 l140
-22 1770 -4 c1849 -3 1934 -2 2180 40 779 131 1352 569 1602 1222 48 127 98
325 125 496 l23 145 0 1800 c0 1980 2 1909 -61 2210 -53 250 -160 511 -291
710 -279 423 -757 741 -1270 844 -275 56 -198 54 -2153 56 -993 1 -1832 0
-1865 -1z m3505 -665 c150 -13 335 -51 446 -90 464 -163 798 -543 929 -1058
35 -137 53 -262 65 -446 14 -215 14 -2884 0 -3066 -36 -465 -171 -789 -440
-1059 -229 -229 -537 -375 -915 -434 -224 -35 -393 -38 -1905 -33 -1635 4
-1584 2 -1845 67 -301 75 -522 197 -731 405 -269 267 -395 553 -446 1010 -10
94 -13 438 -13 1610 0 1389 1 1500 18 1630 47 358 131 603 283 832 75 113 241
284 351 363 203 144 472 239 763 269 126 13 3299 13 3440 0z"/>
<path d="M7061 7794 c-71 -19 -161 -68 -218 -118 -183 -161 -221 -462 -85
-672 171 -264 543 -315 782 -106 191 167 230 454 92 668 -124 191 -359 285
-571 228z"/>
<path d="M4900 7250 c-806 -78 -1502 -661 -1704 -1427 -119 -451 -72 -944 129
-1342 154 -308 395 -579 685 -772 106 -71 335 -181 465 -224 366 -120 784
-134 1157 -40 699 178 1266 741 1429 1421 82 344 61 746 -56 1074 -39 108
-135 306 -190 391 -171 265 -416 504 -672 656 -352 209 -807 305 -1243 263z
m477 -679 c333 -68 621 -261 815 -544 56 -83 134 -248 162 -348 64 -225 62
-508 -5 -734 -90 -303 -355 -604 -651 -739 -379 -173 -805 -168 -1173 13 -440
217 -685 617 -685 1116 0 359 127 658 386 905 212 203 426 303 759 354 68 10
294 -3 392 -23z"/>
</g>
</svg>
