<?xml version="1.0" standalone="no"?>
<!DOCTYPE svg PUBLIC "-//W3C//DTD SVG 20010904//EN"
 "http://www.w3.org/TR/2001/REC-SVG-20010904/DTD/svg10.dtd">
<svg version="1.0" xmlns="http://www.w3.org/2000/svg"
 width="1918.000000pt" height="820.000000pt" viewBox="0 0 1918.000000 820.000000"
 preserveAspectRatio="xMidYMid meet">

<g transform="translate(0.000000,820.000000) scale(0.100000,-0.100000)"
fill="#000000" stroke="none">
<path d="M12035 6956 c-34 -15 -87 -71 -111 -119 -50 -97 -197 -290 -275 -362
-102 -94 -236 -178 -345 -215 -121 -43 -179 -51 -397 -60 -243 -10 -264 -15
-298 -80 -18 -32 -19 -64 -19 -455 0 -399 1 -422 20 -452 37 -61 49 -63 365
-63 l285 0 0 -1618 0 -1618 23 -44 c41 -83 26 -81 559 -78 454 3 467 4 495 24
15 11 36 36 45 55 17 32 18 132 18 1657 l0 1622 256 0 c282 0 289 1 332 64 22
32 22 36 22 453 0 419 0 420 -22 453 -13 18 -36 43 -51 54 -27 20 -38 21 -282
18 l-254 -3 -3 340 c-3 326 -4 341 -24 368 -46 62 -76 73 -198 73 -69 -1 -122
-6 -141 -14z"/>
<path d="M15016 6194 c-177 -35 -337 -115 -481 -239 l-60 -52 -3 96 c-3 104
-16 138 -64 174 -25 19 -44 19 -490 20 -442 1 -466 0 -498 -19 -18 -10 -41
-35 -51 -54 -18 -34 -19 -105 -19 -2136 l0 -2101 23 -34 c12 -18 34 -39 47
-46 19 -10 138 -13 490 -13 443 0 467 1 497 20 17 10 38 29 45 42 10 19 14
315 18 1553 5 1438 6 1532 23 1568 28 61 82 112 149 143 55 24 75 28 158 28
111 0 158 -12 224 -55 52 -35 91 -86 106 -140 7 -22 11 -565 11 -1539 0 -1147
3 -1513 12 -1540 7 -20 27 -44 46 -57 l35 -24 479 3 479 3 34 37 c19 21 34 46
34 55 0 10 1 695 3 1523 l2 1505 24 53 c30 67 105 135 174 159 72 24 213 24
286 -1 63 -22 133 -81 164 -141 l22 -40 5 -1530 c5 -1438 6 -1532 23 -1562 34
-64 29 -63 532 -63 496 0 503 1 540 56 20 28 20 59 20 1714 0 1803 2 1735 -51
1896 -106 326 -353 572 -694 691 -138 49 -206 58 -415 57 -170 -1 -200 -3
-286 -26 -214 -58 -391 -153 -530 -285 l-46 -44 -80 78 c-45 43 -120 102 -168
132 -95 59 -265 123 -375 140 -90 15 -311 12 -394 -5z"/>
<path d="M1450 6191 c-298 -5 -339 -8 -363 -24 -62 -41 -58 141 -58 -2182 0
-1907 1 -2119 15 -2141 37 -55 36 -55 546 -52 l470 3 32 33 33 32 5 638 5 637
415 6 c380 5 422 8 495 27 401 106 693 393 796 782 36 137 41 244 36 811 -4
602 -4 597 -77 786 -107 277 -364 517 -640 597 -156 45 -169 46 -785 50 -324
1 -741 0 -925 -3z m1206 -1068 c51 -27 98 -80 115 -130 21 -56 20 -638 0 -708
-20 -66 -81 -128 -143 -143 -65 -17 -470 -16 -486 0 -9 9 -12 135 -12 503 0
271 3 495 8 499 4 4 113 6 242 4 218 -3 238 -5 276 -25z"/>
<path d="M4614 6189 c-47 -13 -91 -60 -104 -108 -7 -28 -10 -153 -8 -391 3
-336 4 -350 24 -377 11 -15 36 -38 54 -50 l33 -23 496 0 c412 0 507 -3 555
-15 101 -26 147 -75 167 -177 20 -97 -22 -191 -104 -235 -28 -15 -75 -19 -352
-25 -328 -6 -359 -10 -505 -54 -366 -110 -648 -402 -746 -771 l-25 -93 3 -567
4 -568 27 -100 c106 -391 422 -699 828 -808 84 -22 86 -22 934 -22 l850 0 57
28 c64 32 112 81 141 145 19 44 19 74 18 1646 0 1058 -4 1626 -11 1676 -34
243 -131 445 -289 600 -140 138 -303 225 -506 271 -98 22 -116 22 -805 25
-422 2 -718 -1 -736 -7z m1091 -2390 c55 -24 85 -50 108 -92 22 -41 22 -49 22
-397 0 -352 0 -355 -23 -403 -17 -34 -37 -55 -70 -75 -45 -26 -53 -27 -209
-30 -189 -4 -243 7 -291 63 -55 62 -57 80 -57 450 0 331 1 341 22 381 28 52
73 91 121 103 20 5 46 12 57 15 40 10 290 -1 320 -15z"/>
<path d="M7589 6191 c-160 -7 -183 -14 -220 -74 -19 -31 -19 -52 -17 -997 l3
-965 28 -100 c118 -421 400 -698 802 -787 77 -17 143 -21 452 -27 344 -6 363
-7 389 -27 62 -46 87 -119 70 -209 -8 -40 -57 -101 -95 -118 -18 -9 -212 -13
-658 -17 -618 -5 -632 -5 -659 -26 -15 -11 -37 -33 -48 -48 -20 -27 -21 -41
-24 -464 -2 -401 -1 -440 15 -472 37 -73 2 -70 819 -70 789 0 818 2 971 54
341 116 604 377 713 708 50 153 50 138 50 1900 0 1611 0 1644 -20 1675 -43 71
-25 68 -513 66 -484 -3 -472 -1 -521 -66 -21 -28 -21 -34 -26 -870 -6 -926 -1
-867 -67 -929 -51 -49 -89 -58 -248 -58 -155 0 -196 9 -243 53 -60 56 -57 6
-62 922 l-5 840 -23 38 c-42 67 -46 68 -400 71 -174 1 -382 0 -463 -3z"/>
</g>
</svg>
