<?xml version="1.0" standalone="no"?>
<!DOCTYPE svg PUBLIC "-//W3C//DTD SVG 20010904//EN"
 "http://www.w3.org/TR/2001/REC-SVG-20010904/DTD/svg10.dtd">
<svg version="1.0" xmlns="http://www.w3.org/2000/svg"
 width="1774.000000pt" height="887.000000pt" viewBox="0 0 1774.000000 887.000000"
 preserveAspectRatio="xMidYMid meet">

<g transform="translate(0.000000,887.000000) scale(0.100000,-0.100000)"
fill="#000000" stroke="none">
<path d="M2740 7003 c-399 -41 -798 -177 -1125 -382 -589 -370 -979 -965
-1106 -1688 -27 -153 -36 -445 -20 -608 85 -834 593 -1565 1350 -1944 296
-149 594 -228 953 -253 694 -49 1408 231 1908 748 266 275 446 577 565 947 92
285 120 488 112 817 -5 200 -9 241 -36 370 -112 534 -340 955 -714 1316 -197
191 -375 318 -605 433 -345 172 -704 254 -1096 249 -83 0 -167 -3 -186 -5z m0
-700 c28 -14 63 -46 95 -85 28 -35 198 -241 379 -458 l329 -395 199 -5 199 -5
39 -41 c47 -51 60 -94 60 -204 0 -134 6 -130 -211 -130 l-179 0 0 -979 c0
-917 -1 -980 -17 -1000 -38 -45 -268 -52 -362 -10 -59 26 -80 45 -102 94 -16
35 -19 69 -19 284 0 202 -2 242 -14 238 -49 -19 -162 -48 -226 -58 -90 -14
-270 -6 -355 16 -275 70 -463 300 -495 607 -5 51 -10 254 -10 451 l0 357 -129
0 c-125 0 -131 1 -161 26 -55 47 -72 95 -74 210 -2 161 -84 143 701 146 l663
3 -167 151 c-153 137 -480 443 -625 585 -45 45 -58 63 -58 87 0 47 34 66 187
102 76 17 143 34 148 36 6 2 44 2 85 1 54 -2 88 -9 120 -24z"/>
<path d="M2544 4966 c-3 -8 -4 -178 -2 -378 4 -340 5 -367 26 -428 27 -81 69
-133 136 -167 94 -49 307 -42 419 14 l27 14 -2 477 -3 477 -298 3 c-251 2
-298 0 -303 -12z"/>
<path d="M6739 5255 c-141 -23 -320 -73 -365 -102 -12 -8 -27 -26 -33 -41 -8
-19 -11 -309 -9 -1030 l3 -1004 24 -19 c21 -17 41 -19 196 -19 l174 0 20 26
c20 26 21 39 21 311 0 249 2 284 15 279 8 -3 54 -13 102 -22 105 -20 285 -15
378 11 185 50 341 175 409 330 56 127 61 161 61 450 0 192 -4 287 -14 330 -31
139 -108 269 -209 351 -64 53 -187 115 -277 140 -82 23 -377 28 -496 9z m389
-375 c66 -29 134 -103 159 -173 15 -44 18 -85 18 -277 0 -215 -1 -227 -24
-277 -30 -68 -92 -125 -167 -153 -49 -18 -73 -21 -144 -17 -47 2 -110 13 -140
23 l-55 19 -3 419 c-1 231 1 423 6 428 4 4 37 14 72 23 90 20 211 14 278 -15z"/>
<path d="M8055 5263 c-16 -2 -38 -12 -47 -20 -17 -15 -18 -80 -18 -1083 0
-1065 0 -1067 21 -1094 l20 -26 174 0 174 0 20 26 c21 26 21 35 21 611 l0 584
48 21 c59 27 193 36 258 18 65 -18 118 -61 145 -117 l24 -48 5 -480 5 -480 25
-44 c17 -30 40 -52 69 -68 39 -21 58 -23 170 -23 69 0 131 4 138 8 30 19 33
70 33 490 0 497 -9 635 -45 749 -63 200 -215 335 -427 377 -129 26 -278 14
-395 -33 l-52 -20 -3 267 c-3 246 -5 270 -23 302 -32 56 -93 80 -211 85 -54 2
-112 1 -129 -2z"/>
<path d="M14895 5263 c-180 -23 -387 -83 -427 -123 l-28 -28 0 -1014 0 -1015
23 -21 c22 -21 32 -22 194 -22 l172 0 20 26 c20 26 21 39 21 311 0 266 1 284
18 279 143 -43 370 -45 497 -6 228 72 366 213 427 438 19 70 21 101 19 347 -2
307 -11 369 -66 483 -84 170 -254 291 -477 337 -64 14 -311 19 -393 8z m332
-382 c65 -29 133 -100 159 -166 17 -44 19 -77 19 -285 0 -227 -1 -237 -24
-283 -31 -63 -106 -129 -171 -150 -75 -24 -189 -22 -270 6 l-65 22 -3 423 c-2
333 0 424 10 427 101 39 263 41 345 6z"/>
<path d="M13384 4680 c-161 -21 -303 -87 -395 -186 -60 -65 -92 -122 -121
-214 -22 -73 -23 -86 -23 -445 0 -361 1 -372 23 -437 30 -87 85 -171 151 -230
191 -171 559 -213 861 -99 70 27 166 98 181 134 23 54 -13 158 -74 215 -42 39
-83 39 -169 -2 -105 -50 -194 -69 -298 -64 -96 5 -145 25 -197 80 -41 43 -55
95 -51 193 l3 80 410 5 c226 3 417 9 426 13 9 4 21 19 28 33 14 31 15 344 1
434 -47 300 -257 476 -591 494 -52 2 -126 1 -165 -4z m261 -385 c73 -45 98
-101 103 -226 4 -96 4 -98 -19 -103 -13 -3 -121 -5 -239 -3 l-215 2 -3 90 c-4
107 8 153 51 202 50 56 97 74 193 71 69 -3 87 -7 129 -33z"/>
<path d="M16575 4680 c-288 -41 -466 -184 -532 -430 -16 -56 -18 -112 -18
-410 0 -374 3 -404 56 -516 36 -76 126 -173 204 -219 254 -150 708 -127 912
46 39 33 53 60 53 101 0 81 -89 198 -151 198 -16 0 -61 -16 -99 -35 -98 -49
-185 -68 -295 -63 -103 5 -153 25 -203 83 -40 45 -47 70 -47 180 l0 90 418 5
419 5 19 24 c17 21 19 41 19 223 0 142 -4 221 -16 275 -45 222 -202 376 -431
427 -91 20 -229 27 -308 16z m216 -365 c91 -32 138 -107 146 -234 9 -126 21
-119 -227 -120 -116 -1 -222 2 -235 5 -24 6 -25 10 -25 83 0 107 22 177 71
223 22 21 54 42 72 47 51 15 150 12 198 -4z"/>
<path d="M10140 4674 c-286 -55 -458 -200 -527 -444 -16 -57 -18 -106 -18
-410 l0 -345 28 -79 c68 -193 200 -309 419 -368 116 -31 384 -31 499 0 210 57
358 196 416 393 13 43 17 120 20 366 6 412 -6 490 -98 627 -76 114 -201 200
-354 242 -59 16 -328 29 -385 18z m275 -392 c46 -23 85 -62 111 -112 17 -31
19 -65 22 -297 4 -284 -2 -343 -43 -405 -75 -114 -289 -133 -400 -36 -72 63
-77 93 -73 425 3 263 4 280 25 318 49 92 139 138 253 132 39 -3 81 -12 105
-25z"/>
<path d="M11770 4673 c-72 -7 -252 -44 -335 -68 -113 -33 -159 -58 -174 -92
-8 -21 -11 -214 -9 -731 l3 -704 24 -19 c21 -17 41 -19 191 -19 l169 0 20 26
c21 26 21 35 21 620 l0 593 38 11 c222 63 381 9 434 -150 7 -23 13 -194 17
-517 6 -468 7 -482 27 -510 11 -15 38 -38 60 -50 35 -20 53 -23 170 -23 116 0
133 2 148 19 16 17 17 62 14 577 l-3 559 -28 81 c-76 226 -234 350 -496 389
-89 14 -207 17 -291 8z"/>
</g>
</svg>
