<?xml version="1.0" standalone="no"?>
<!DOCTYPE svg PUBLIC "-//W3C//DTD SVG 20010904//EN"
 "http://www.w3.org/TR/2001/REC-SVG-20010904/DTD/svg10.dtd">
<svg version="1.0" xmlns="http://www.w3.org/2000/svg"
 width="1024.000000pt" height="1024.000000pt" viewBox="0 0 1024.000000 1024.000000"
 preserveAspectRatio="xMidYMid meet">

<g transform="translate(0.000000,1024.000000) scale(0.100000,-0.100000)"
fill="#000000" stroke="none">
<path d="M4900 8849 c-1225 -58 -2381 -762 -2995 -1824 -207 -359 -359 -753
-435 -1135 -61 -300 -85 -693 -61 -985 128 -1552 1231 -2834 2771 -3220 1126
-283 2344 -49 3238 621 462 347 816 777 1077 1309 390 796 463 1759 198 2615
-105 341 -278 697 -490 1009 -288 424 -680 796 -1118 1061 -135 82 -380 207
-530 270 -128 55 -419 151 -558 184 -327 80 -710 113 -1097 95z m100 -1028 l0
-559 -117 -6 c-231 -13 -491 -37 -662 -62 -157 -22 -389 -66 -426 -81 -19 -7
-19 -7 11 68 50 122 183 374 262 494 204 312 471 557 712 653 59 23 161 50
198 51 l22 1 0 -559z m408 523 c271 -90 558 -341 780 -684 92 -142 282 -523
269 -537 -3 -2 -85 12 -183 31 -271 53 -655 96 -858 96 -45 0 -104 3 -133 6
l-52 7 -1 559 0 560 52 -7 c29 -4 86 -18 126 -31z m-1520 -251 c-155 -164
-406 -598 -532 -923 -27 -69 -54 -138 -61 -155 -11 -26 -23 -33 -101 -58 -127
-41 -307 -117 -469 -200 -156 -80 -429 -258 -518 -337 -32 -29 -60 -51 -62
-49 -7 7 142 305 205 409 147 244 302 443 495 635 234 233 491 424 779 580 94
51 275 135 291 135 5 0 -7 -17 -27 -37z m2617 -37 c581 -277 1132 -800 1450
-1376 60 -109 147 -302 139 -309 -2 -3 -23 14 -47 36 -175 168 -587 398 -947
529 -80 29 -148 58 -152 66 -4 7 -27 65 -52 130 -123 320 -338 709 -511 923
-59 73 -62 79 -34 70 13 -4 83 -35 154 -69z m-1505 -1901 l0 -685 -770 0 -770
0 0 33 c0 51 28 361 45 492 33 258 105 618 129 641 12 12 145 47 336 88 285
61 674 108 953 114 l77 2 0 -685z m525 670 c350 -26 663 -75 950 -148 112 -28
132 -36 142 -57 20 -43 101 -466 123 -645 27 -223 49 -488 41 -498 -4 -4 -353
-6 -777 -5 l-769 3 -3 683 -2 682 47 0 c27 0 138 -7 248 -15z m-2340 -347
c-53 -226 -115 -708 -115 -898 0 -36 -3 -75 -6 -87 l-6 -23 -539 0 c-475 0
-539 2 -539 15 0 30 99 212 161 295 158 214 422 425 722 577 86 44 303 140
320 142 4 1 5 -9 2 -21z m4040 -49 c39 -17 122 -57 185 -91 394 -208 673 -468
811 -754 27 -56 49 -104 49 -108 0 -3 -245 -6 -544 -6 l-543 0 -7 128 c-17
310 -75 730 -122 885 -6 19 10 14 171 -54z m-4161 -1416 c23 -415 70 -754 135
-963 10 -32 16 -61 14 -64 -3 -2 -35 7 -71 20 -529 198 -924 515 -1092 878
-40 85 -82 220 -72 230 3 3 247 6 543 6 l537 0 6 -107z m1936 -643 l0 -749
-97 5 c-384 21 -753 74 -1078 155 -149 36 -161 42 -167 71 -3 13 -24 91 -46
173 -85 313 -152 774 -152 1043 l0 52 770 0 770 0 0 -750z m1780 688 c0 -102
-19 -322 -40 -481 -45 -324 -150 -750 -188 -761 -69 -21 -398 -91 -542 -115
-188 -32 -525 -68 -680 -73 l-95 -3 -3 735 c-1 404 0 741 3 748 3 9 168 12
775 12 l770 0 0 -62z m1490 58 c0 -25 -58 -193 -86 -249 -156 -308 -442 -559
-875 -766 -126 -61 -279 -123 -279 -114 0 2 11 48 25 102 65 257 106 558 121
879 l7 152 543 0 c299 0 544 -2 544 -4z m-5889 -1171 c235 -175 534 -325 884
-443 l110 -37 19 -55 c109 -319 337 -756 516 -991 34 -44 60 -82 58 -84 -18
-17 -477 210 -638 315 -467 306 -871 754 -1094 1214 -47 97 -126 293 -126 312
0 4 38 -30 84 -74 46 -44 130 -115 187 -157z m5724 163 c-137 -377 -384 -749
-711 -1068 -260 -253 -485 -416 -789 -568 -135 -68 -336 -154 -342 -148 -2 2
36 57 85 122 184 244 334 526 468 879 l53 139 141 47 c328 110 604 251 845
430 95 71 235 192 248 215 4 8 12 14 17 14 4 0 -2 -28 -15 -62z m-4070 -797
c282 -56 540 -87 803 -98 l162 -6 0 -524 0 -525 -42 7 c-359 59 -749 443
-1018 1000 -80 167 -83 175 -67 175 7 0 80 -13 162 -29z m2345 25 c0 -17 -132
-278 -189 -374 -243 -411 -576 -714 -862 -786 -36 -9 -73 -16 -82 -16 -16 0
-17 37 -15 523 l3 522 182 7 c272 10 617 54 848 108 82 19 115 23 115 16z"/>
</g>
</svg>
