<?xml version="1.0" standalone="no"?>
<!DOCTYPE svg PUBLIC "-//W3C//DTD SVG 20010904//EN"
 "http://www.w3.org/TR/2001/REC-SVG-20010904/DTD/svg10.dtd">
<svg version="1.0" xmlns="http://www.w3.org/2000/svg"
 width="1024.000000pt" height="1024.000000pt" viewBox="0 0 1024.000000 1024.000000"
 preserveAspectRatio="xMidYMid meet">

<g transform="translate(0.000000,1024.000000) scale(0.100000,-0.100000)"
fill="#000000" stroke="none">
<path d="M4905 9114 c-22 -2 -92 -9 -155 -15 -500 -47 -1048 -225 -1502 -487
-448 -260 -897 -664 -1185 -1067 -262 -367 -468 -833 -567 -1280 -179 -811
-72 -1610 313 -2342 l51 -96 -64 -226 c-84 -296 -240 -847 -330 -1166 -128
-458 -187 -677 -184 -684 3 -8 116 22 538 140 580 163 815 230 1160 330 206
60 382 109 391 109 9 0 81 -31 159 -69 380 -186 847 -310 1315 -350 153 -14
485 -14 640 -1 1048 89 1907 534 2534 1315 443 551 727 1258 791 1973 16 170
8 574 -14 741 -90 677 -360 1299 -790 1820 -110 133 -347 368 -492 488 -564
467 -1272 771 -1974 848 -138 15 -550 28 -635 19z m580 -654 c690 -92 1322
-398 1794 -870 440 -440 726 -990 821 -1580 100 -625 5 -1203 -291 -1770 -468
-895 -1348 -1471 -2384 -1560 -645 -55 -1341 107 -1830 424 -55 36 -111 66
-125 66 -25 0 -214 -54 -789 -226 -156 -47 -285 -83 -288 -81 -2 3 57 225 132
493 89 320 135 499 132 519 -3 17 -32 72 -65 122 -327 493 -482 1000 -482
1574 0 1218 782 2295 1980 2727 214 77 469 138 680 161 52 6 109 13 125 15 54
8 508 -3 590 -14z"/>
<path d="M3924 7338 c-229 -19 -462 -199 -607 -468 -111 -205 -145 -491 -88
-725 65 -266 236 -606 462 -920 257 -358 518 -632 816 -856 539 -407 1157
-623 1678 -587 248 17 494 138 640 315 114 138 167 289 168 473 1 145 -12 193
-67 245 -48 46 -276 165 -534 279 -282 125 -392 155 -467 126 -42 -16 -140
-115 -235 -240 -125 -163 -147 -183 -206 -182 -102 2 -338 103 -511 219 -222
148 -402 332 -551 562 -55 86 -132 235 -132 257 0 7 35 42 78 78 132 111 220
226 248 324 22 74 6 136 -78 302 -86 169 -125 256 -200 445 -95 239 -129 299
-190 331 -40 21 -132 30 -224 22z"/>
</g>
</svg>
