<?xml version="1.0" standalone="no"?>
<!DOCTYPE svg PUBLIC "-//W3C//DTD SVG 20010904//EN"
 "http://www.w3.org/TR/2001/REC-SVG-20010904/DTD/svg10.dtd">
<svg version="1.0" xmlns="http://www.w3.org/2000/svg"
 width="1024.000000pt" height="1024.000000pt" viewBox="0 0 1024.000000 1024.000000"
 preserveAspectRatio="xMidYMid meet">

<g transform="translate(0.000000,1024.000000) scale(0.100000,-0.100000)"
fill="#000000" stroke="none">
<path d="M4965 8174 c-783 -38 -1468 -208 -2130 -528 -521 -253 -975 -577
-1401 -1001 -287 -284 -288 -264 24 -578 257 -258 294 -282 385 -243 18 7 114
94 214 193 425 421 756 661 1223 886 630 304 1264 441 1960 424 624 -16 1155
-142 1705 -406 453 -217 798 -466 1215 -877 113 -111 219 -209 237 -218 40
-20 86 -20 127 -1 18 9 132 116 253 238 180 181 223 230 233 263 26 86 -19
149 -282 392 -282 261 -468 409 -719 574 -780 512 -1630 807 -2499 867 -173
12 -448 19 -545 15z"/>
<path d="M4845 6494 c-365 -38 -612 -89 -885 -182 -386 -131 -784 -345 -1090
-586 -122 -96 -373 -330 -421 -392 -46 -60 -58 -111 -39 -170 17 -50 432 -474
494 -504 102 -49 138 -30 358 193 251 252 427 379 712 518 230 111 500 195
766 236 180 28 628 25 805 -5 469 -81 847 -250 1215 -545 41 -33 148 -134 238
-225 166 -166 202 -192 267 -192 70 0 105 26 319 238 250 248 266 268 266 332
0 66 -35 114 -193 262 -295 278 -541 452 -878 623 -416 211 -789 327 -1229
381 -110 14 -622 27 -705 18z"/>
<path d="M4830 4850 c-440 -68 -808 -253 -1133 -569 -123 -120 -144 -185 -88
-272 36 -55 385 -401 426 -422 102 -50 146 -34 295 107 164 157 273 227 435
280 274 91 574 67 838 -65 118 -60 181 -106 296 -214 116 -110 171 -141 234
-131 23 4 55 15 72 26 16 10 121 110 232 222 173 175 203 209 213 247 19 71
-3 113 -119 223 -409 393 -886 589 -1426 587 -100 -1 -203 -7 -275 -19z"/>
<path d="M4995 3445 c-216 -58 -365 -217 -411 -437 -49 -234 76 -487 297 -598
215 -109 449 -70 625 105 111 110 164 238 164 398 0 148 -54 273 -164 383 -78
78 -177 133 -274 153 -70 15 -175 13 -237 -4z"/>
</g>
</svg>
